<svg width="20" height="20" viewBox="0 0 20 20" fill="none" xmlns="http://www.w3.org/2000/svg">
<g clip-path="url(#clip0_51_122)">
<path d="M10 1.66669V3.33335" stroke="#9A9C9F" stroke-width="2" stroke-linecap="round" stroke-linejoin="round"/>
<path d="M4.1084 4.10834L5.2834 5.28334" stroke="#9A9C9F" stroke-width="2" stroke-linecap="round" stroke-linejoin="round"/>
<path d="M16.6667 10H18.3334" stroke="#9A9C9F" stroke-width="2" stroke-linecap="round" stroke-linejoin="round"/>
<path d="M15.8916 4.10834L14.7166 5.28334" stroke="#9A9C9F" stroke-width="2" stroke-linecap="round" stroke-linejoin="round"/>
<path d="M13.2891 10.5417C13.3916 9.92043 13.3161 9.28284 13.0713 8.70272C12.8265 8.1226 12.4224 7.62369 11.9057 7.26374C11.3891 6.9038 10.7811 6.69755 10.1521 6.66887C9.52308 6.64018 8.89881 6.79025 8.35156 7.10168" stroke="#9A9C9F" stroke-width="2" stroke-linecap="round" stroke-linejoin="round"/>
<path d="M10.8333 18.3333H5.8333C5.04494 18.3332 4.2728 18.1094 3.60657 17.6879C2.94033 17.2664 2.40734 16.6646 2.06949 15.9523C1.73164 15.24 1.6028 14.4465 1.69793 13.6639C1.79307 12.8813 2.10827 12.1417 2.60693 11.5311C3.1056 10.9205 3.76726 10.4639 4.51507 10.2143C5.26288 9.96473 6.06615 9.93243 6.83158 10.1211C7.59702 10.3099 8.29321 10.7119 8.8393 11.2805C9.38539 11.8491 9.75896 12.5609 9.91663 13.3333H10.8333C11.4963 13.3333 12.1322 13.5967 12.6011 14.0656C13.0699 14.5344 13.3333 15.1703 13.3333 15.8333C13.3333 16.4964 13.0699 17.1323 12.6011 17.6011C12.1322 18.0699 11.4963 18.3333 10.8333 18.3333Z" stroke="#9A9C9F" stroke-width="2" stroke-linecap="round" stroke-linejoin="round"/>
</g>
<defs>
<clipPath id="clip0_51_122">
<rect width="20" height="20" fill="white"/>
</clipPath>
</defs>
</svg>
